<mxfile host="app.diagrams.net" modified="2023-12-13T10:15:45.277Z" agent="Mozilla/5.0 (Windows NT 10.0; Win64; x64) AppleWebKit/537.36 (KHTML, like Gecko) Chrome/120.0.0.0 Safari/537.36" version="22.1.8" etag="P7cm1Y5n9t1IBE7epeme" type="github">
  <diagram name="PÃ¡gina-1" id="HkbxuckJovFJ4HI9nL17">
    <mxGraphModel>
      <root>
        <mxCell id="0" />
        <mxCell id="1" parent="0" />
      </root>
    </mxGraphModel>
  </diagram>
</mxfile>
